# Blender v2.79 (sub 0) OBJ File: ''
# www.blender.org
mtllib cube_world_dark.mtl
o Cube.001_Cube.002
v 3.947495 2.073770 4.004467
v 3.947495 -3.926228 -3.995535
v 3.947495 -3.926230 4.004467
v 3.947495 2.073772 -3.995534
v 5.947495 -3.926228 -3.995535
v 5.947495 2.073772 -3.995534
v 5.947495 -3.926230 4.004467
v 5.947495 2.073770 4.004467
v -4.017100 2.093966 -4.025509
v -4.017100 -3.906033 -6.025510
v -4.017100 -3.906033 -4.025510
v -4.017100 2.093966 -6.025509
v 3.998899 -3.906033 -6.025510
v 3.998899 2.093966 -6.025509
v 3.998899 -3.906033 -4.025510
v 3.998899 2.093966 -4.025509
v -6.009361 2.073965 4.024490
v -6.009361 -3.926034 -3.975511
v -6.009361 -3.926036 4.024489
v -6.009361 2.073967 -3.975510
v -4.009361 -3.926034 -3.975511
v -4.009361 2.073967 -3.975510
v -4.009361 -3.926036 4.024489
v -4.009361 2.073965 4.024490
v -4.006422 2.072529 5.957668
v -4.006422 -3.927471 3.957667
v -4.006422 -3.927471 5.957667
v -4.006422 2.072529 3.957668
v 3.993577 -3.927471 3.957667
v 3.993577 2.072529 3.957668
v 3.993577 -3.927471 5.957667
v 3.993577 2.072529 5.957668
v 4.000000 -4.000000 3.999999
v -3.999998 -3.999999 -4.000001
v 4.000000 -3.999999 -4.000000
v -4.000000 4.000000 -3.999999
v 3.999997 3.999999 4.000002
v 4.000002 4.000000 -3.999997
v -4.000000 -4.000000 3.999998
v -4.000002 3.999999 4.000000
vt 0.463158 0.875125
vt 0.589474 0.750250
vt 0.589474 0.875125
vt 0.463158 0.750250
vt 0.589474 0.625375
vt 0.747368 0.624376
vt 0.621053 0.499500
vt 0.747368 0.499500
vt 0.621053 0.624376
vt 0.747368 0.749251
vt 0.621053 0.749251
vt 0.210526 0.915751
vt 0.336842 0.790876
vt 0.336842 0.915751
vt 0.873684 0.624376
vt 0.747368 0.499500
vt 0.873684 0.499500
vt 0.873684 0.624376
vt 0.905263 0.749251
vt 0.873684 0.749251
vt 0.463158 0.500499
vt 0.589474 0.000000
vt 0.589474 0.500499
vt 0.368421 0.916750
vt 0.336842 0.791875
vt 0.368421 0.791875
vt 0.463158 0.000000
vt 0.336842 0.500499
vt 0.336842 0.000000
vt 0.126316 0.499501
vt 0.157895 1.000000
vt 0.126316 1.000000
vt 1.000000 0.500499
vt 0.968421 0.000000
vt 1.000000 0.000000
vt 0.747368 0.874126
vt 0.873684 0.749251
vt 0.873684 0.874126
vt 0.336842 0.791875
vt 0.463158 0.667000
vt 0.463158 0.791875
vt 0.589474 0.500499
vt 0.463158 0.625375
vt 0.463158 0.500499
vt 0.747368 0.624376
vt 0.873684 0.749251
vt 0.747368 0.749251
vt 0.210526 0.666001
vt 0.336842 0.790876
vt 0.210526 0.790876
vt 0.747368 0.874126
vt 0.621053 0.749251
vt 0.747368 0.749251
vt 0.873684 0.499500
vt 0.905263 0.624376
vt 0.873684 0.624376
vt 0.715789 0.499500
vt 0.842105 0.000000
vt 0.842105 0.499500
vt 0.905263 0.874126
vt 0.873684 0.749251
vt 0.905263 0.749251
vt 0.715789 0.000000
vt 0.589474 0.499501
vt 0.589474 0.000000
vt 0.178947 0.499501
vt 0.210526 0.999001
vt 0.178947 0.999001
vt 0.621053 0.999001
vt 0.589474 0.499500
vt 0.621053 0.499500
vt 0.968421 0.000000
vt 0.842105 0.499500
vt 0.842105 0.000000
vt 0.000000 0.499501
vt 0.126316 0.999001
vt 0.000000 0.999001
vt 0.336842 0.666001
vt 0.210526 0.499501
vt 0.336842 0.499501
vt 0.168421 0.499500
vt 0.336842 0.000000
vt 0.336842 0.499501
vt 0.463158 0.667000
vt 0.336842 0.500499
vt 0.463158 0.500499
vt 0.168421 0.000000
vt 0.000000 0.000000
vt 0.463158 0.625375
vt 0.747368 0.624376
vt 0.210526 0.790876
vt 0.905263 0.624376
vt 0.463158 0.000000
vt 0.336842 0.916750
vt 0.463158 0.500499
vt 0.157895 0.499501
vt 0.968421 0.500499
vt 0.747368 0.749251
vt 0.336842 0.667000
vt 0.589474 0.625375
vt 0.873684 0.624376
vt 0.336842 0.666001
vt 0.621053 0.874126
vt 0.905263 0.499500
vt 0.715789 0.000000
vt 0.873684 0.874126
vt 0.715789 0.499501
vt 0.210526 0.499501
vt 0.589474 0.999001
vt 0.968421 0.499500
vt 0.126316 0.499501
vt 0.210526 0.666001
vt 0.168421 0.000000
vt 0.336842 0.667000
vt 0.168421 0.499500
vn -1.0000 -0.0000 0.0000
vn 0.0000 0.0000 -1.0000
vn 1.0000 0.0000 0.0000
vn 0.0000 -0.0000 1.0000
vn 0.0000 -1.0000 -0.0000
vn 0.0000 1.0000 0.0000
usemtl Material.001
s 1
f 1/1/1 2/2/1 3/3/1
f 4/4/2 5/5/2 2/2/2
f 6/6/3 7/7/3 5/8/3
f 8/9/4 3/10/4 7/11/4
f 5/12/5 3/13/5 2/14/5
f 4/15/6 8/16/6 6/17/6
f 9/18/1 10/19/1 11/20/1
f 12/21/2 13/22/2 10/23/2
f 14/24/3 15/25/3 13/26/3
f 16/27/4 11/28/4 15/29/4
f 13/30/5 11/31/5 10/32/5
f 12/33/6 16/34/6 14/35/6
f 17/36/1 18/37/1 19/38/1
f 20/39/2 21/40/2 18/41/2
f 22/42/3 23/43/3 21/44/3
f 24/45/4 19/46/4 23/47/4
f 21/48/5 19/49/5 18/50/5
f 20/51/6 24/52/6 22/53/6
f 25/54/1 26/55/1 27/56/1
f 28/57/2 29/58/2 26/59/2
f 30/60/3 31/61/3 29/62/3
f 32/63/4 27/64/4 31/65/4
f 29/66/5 27/67/5 26/68/5
f 28/69/6 32/70/6 30/71/6
f 33/72/5 34/73/5 35/74/5
f 36/75/6 37/76/6 38/77/6
f 38/78/3 33/79/3 35/80/3
f 37/81/4 39/82/4 33/83/4
f 40/84/1 34/85/1 39/86/1
f 35/87/2 36/75/2 38/88/2
f 1/1/1 4/4/1 2/2/1
f 4/4/2 6/89/2 5/5/2
f 6/6/3 8/9/3 7/7/3
f 8/9/4 1/90/4 3/10/4
f 5/12/5 7/91/5 3/13/5
f 4/15/6 1/90/6 8/16/6
f 9/18/1 12/92/1 10/19/1
f 12/21/2 14/93/2 13/22/2
f 14/24/3 16/94/3 15/25/3
f 16/27/4 9/95/4 11/28/4
f 13/30/5 15/96/5 11/31/5
f 12/33/6 9/97/6 16/34/6
f 17/36/1 20/98/1 18/37/1
f 20/39/2 22/99/2 21/40/2
f 22/42/3 24/100/3 23/43/3
f 24/45/4 17/101/4 19/46/4
f 21/48/5 23/102/5 19/49/5
f 20/51/6 17/103/6 24/52/6
f 25/54/1 28/104/1 26/55/1
f 28/57/2 30/105/2 29/58/2
f 30/60/3 32/106/3 31/61/3
f 32/63/4 25/107/4 27/64/4
f 29/66/5 31/108/5 27/67/5
f 28/69/6 25/109/6 32/70/6
f 33/72/5 39/110/5 34/73/5
f 36/75/6 40/111/6 37/76/6
f 38/78/3 37/112/3 33/79/3
f 37/81/4 40/113/4 39/82/4
f 40/84/1 36/114/1 34/85/1
f 35/87/2 34/115/2 36/75/2
